<?xml version="1.0" encoding="UTF-8" standalone="no"?>
<svg
   xmlns:dc="http://purl.org/dc/elements/1.1/"
   xmlns:cc="http://creativecommons.org/ns#"
   xmlns:rdf="http://www.w3.org/1999/02/22-rdf-syntax-ns#"
   xmlns:svg="http://www.w3.org/2000/svg"
   xmlns="http://www.w3.org/2000/svg"
   xmlns:sodipodi="http://sodipodi.sourceforge.net/DTD/sodipodi-0.dtd"
   xmlns:inkscape="http://www.inkscape.org/namespaces/inkscape"
   version="1.1"
   id="svg2"
   height="1139.6833"
   width="1690.9661"
   inkscape:version="0.91 r13725"
   sodipodi:docname="frein_foucault.svg">
  <sodipodi:namedview
     pagecolor="#ffffff"
     bordercolor="#666666"
     borderopacity="1"
     objecttolerance="10"
     gridtolerance="10"
     guidetolerance="10"
     inkscape:pageopacity="0"
     inkscape:pageshadow="2"
     inkscape:window-width="1637"
     inkscape:window-height="980"
     id="namedview132"
     showgrid="false"
     inkscape:zoom="0.58569672"
     inkscape:cx="842.90025"
     inkscape:cy="536.63594"
     inkscape:window-x="0"
     inkscape:window-y="0"
     inkscape:window-maximized="0"
     inkscape:current-layer="svg2" />
  <defs
     id="defs4" />
  <metadata
     id="metadata7">
    <rdf:RDF>
      <cc:Work
         rdf:about="">
        <dc:format>image/svg+xml</dc:format>
        <dc:type
           rdf:resource="http://purl.org/dc/dcmitype/StillImage" />
        <dc:title />
      </cc:Work>
    </rdf:RDF>
  </metadata>
  <g
     id="g3946"
     transform="translate(-115.62054,161.30545)">
    <path
       inkscape:connector-curvature="0"
       id="path3938"
       d="m 515.98916,725.18116 0,137.7727 c 1.44264,-1.2022 42.86974,40.49923 79.54408,38.52028 22.03506,-1.18901 43.79192,-10.90692 77.52023,-5.44338 33.72742,5.4634 32.4621,28.75009 65.50449,25.64095 38.07933,-3.58309 115.92311,28.93025 110.14716,34.7062 0,0 39.37398,-81.35374 55.3319,-95.57189 21.22697,-18.91276 35.4116,-13.5581 51.56442,-30.55731 11.42176,-12.02026 6.90591,-38.79017 20.71773,-52.59859 13.81182,-13.80842 25.38423,-51.51778 25.38423,-51.51778 l 0,-111.09907"
       style="fill:#aab4bb;fill-opacity:1;stroke:#000000;stroke-width:4;stroke-linecap:butt;stroke-linejoin:miter;stroke-miterlimit:4;stroke-dasharray:none;stroke-opacity:1" />
    <path
       inkscape:connector-curvature="0"
       id="path3944"
       d="M 708.14193,554.62211 1001.7034,615.03327 849.45432,804.12111 515.98916,725.18116 Z"
       style="fill:#777777;fill-opacity:1;stroke:#000000;stroke-width:4;stroke-linecap:butt;stroke-linejoin:miter;stroke-miterlimit:4;stroke-dasharray:none;stroke-opacity:1" />
    <path
       inkscape:connector-curvature="0"
       transform="translate(2.53211,-42.174976)"
       id="path3940"
       d="m 847.74276,845.4263 0,146.12473"
       style="fill:none;stroke:#000000;stroke-width:4;stroke-linecap:butt;stroke-linejoin:miter;stroke-miterlimit:4;stroke-dasharray:none;stroke-opacity:1" />
  </g>
  <path
     inkscape:connector-curvature="0"
     d="M 1668.0519,549.64159 A 812.5689,347.37438 0 0 1 855.48301,897.01597 812.5689,347.37438 0 0 1 42.91411,549.64159 812.5689,347.37438 0 0 1 855.48301,202.26721 812.5689,347.37438 0 0 1 1668.0519,549.64159 Z"
     id="path3892"
     style="color:#000000;display:inline;overflow:visible;visibility:visible;fill:#b8b8b8;fill-opacity:1;fill-rule:nonzero;stroke:#000000;stroke-width:5.82822752;stroke-linecap:round;stroke-linejoin:round;stroke-miterlimit:4;stroke-dasharray:none;stroke-dashoffset:0;stroke-opacity:1;marker:none;enable-background:accumulate" />
  <path
     inkscape:connector-curvature="0"
     style="color:#000000;display:inline;overflow:visible;visibility:visible;fill:#ededed;fill-opacity:1;fill-rule:nonzero;stroke:#000000;stroke-width:5.82822752;stroke-linecap:round;stroke-linejoin:round;stroke-miterlimit:4;stroke-dasharray:none;stroke-dashoffset:0;stroke-opacity:1;marker:none;enable-background:accumulate"
     id="path3116"
     d="M 1668.0519,506.78445 A 812.5689,347.37438 0 0 1 855.48301,854.15883 812.5689,347.37438 0 0 1 42.91411,506.78445 812.5689,347.37438 0 0 1 855.48301,159.41007 812.5689,347.37438 0 0 1 1668.0519,506.78445 Z" />
  <path
     inkscape:connector-curvature="0"
     d="m 969.78826,462.94973 a 90.848208,37.361235 0 0 1 -90.8482,37.36124 90.848208,37.361235 0 0 1 -90.84821,-37.36124 90.848208,37.361235 0 0 1 90.84821,-37.36123 90.848208,37.361235 0 0 1 90.8482,37.36123 z"
     id="path3894"
     style="color:#000000;display:inline;overflow:visible;visibility:visible;fill:#909090;fill-opacity:1;fill-rule:nonzero;stroke:#000000;stroke-width:6;stroke-linecap:round;stroke-linejoin:round;stroke-miterlimit:4;stroke-dasharray:none;stroke-dashoffset:0;stroke-opacity:1;marker:none;enable-background:accumulate" />
  <path
     inkscape:connector-curvature="0"
     style="fill:#909090;fill-opacity:1;stroke:#000000;stroke-width:6;stroke-linecap:butt;stroke-linejoin:miter;stroke-miterlimit:4;stroke-dasharray:none;stroke-opacity:1"
     d="m 787.96079,461.49555 0,-373.552711 181.82747,-2.588075 0,376.140786"
     id="path3910" />
  <path
     inkscape:connector-curvature="0"
     style="color:#000000;display:inline;overflow:visible;visibility:visible;fill:#ededed;fill-opacity:1;fill-rule:nonzero;stroke:#000000;stroke-width:6;stroke-linecap:round;stroke-linejoin:round;stroke-miterlimit:4;stroke-dasharray:none;stroke-dashoffset:0;stroke-opacity:1;marker:none;enable-background:accumulate"
     id="path3902"
     d="m 969.72273,80.361233 a 90.848208,37.361235 0 0 1 -90.8482,37.361237 90.848208,37.361235 0 0 1 -90.84821,-37.361237 90.848208,37.361235 0 0 1 90.84821,-37.361235 90.848208,37.361235 0 0 1 90.8482,37.361235 z" />
  <g
     id="g5335"
     transform="matrix(0.99985509,0.01702323,-0.01702323,0.99985509,-106.20393,137.1262)">
    <path
       inkscape:connector-curvature="0"
       id="path4773"
       d="m 1251.7022,605.75087 c 80.5184,-5.6726 244.4028,-62.52711 311.5156,-107.91301"
       style="fill:none;stroke:#000000;stroke-width:24;stroke-linecap:butt;stroke-linejoin:miter;stroke-miterlimit:4;stroke-dasharray:none;stroke-opacity:1;marker-end:none" />
    <path
       inkscape:connector-curvature="0"
       id="path5147"
       d="m 1480.9662,504.93929 50.8218,8.27209 -6.5365,47.6519 84.4931,-96.0488 z"
       style="fill:#000000;fill-opacity:1;stroke:#000000;stroke-width:1px;stroke-linecap:butt;stroke-linejoin:miter;stroke-opacity:1" />
  </g>
  <g
     id="layer1"
     transform="translate(705.56426,338.33677)"
     style="display:inline">
    <g
       transform="translate(128.28937,-189.90868)"
       id="g5353">
      <g
         transform="matrix(1,0,0,-1,-2163.9508,758.32747)"
         id="g4102"
         style="display:inline">
        <path
           style="color:#000000;fill:#000000;fill-opacity:1;stroke:#000000;stroke-width:1.05131602;stroke-linecap:butt;stroke-linejoin:miter;stroke-miterlimit:4;stroke-opacity:1;stroke-dasharray:none;stroke-dashoffset:0;marker:none;visibility:visible;display:inline;overflow:visible;enable-background:accumulate"
           id="path4104"
           d="m 927.32006,1422.9663 a 23.233507,13.131983 0 0 1 -23.23351,13.132 23.233507,13.131983 0 0 1 -23.23351,-13.132 23.233507,13.131983 0 0 1 23.23351,-13.132 23.233507,13.131983 0 0 1 23.23351,13.132 z"
           transform="matrix(0.74875167,0,0,-0.74875167,1471.7177,1200.0007)" />
        <path
           id="path4106"
           d="m 2131.8561,131.91815 17.3943,-33.0987 16.4997,33.5956"
           style="fill:#000000;fill-opacity:1;stroke:#000000;stroke-width:0.78717464;stroke-linecap:butt;stroke-linejoin:miter;stroke-miterlimit:4;stroke-opacity:1;stroke-dasharray:none;display:inline" />
      </g>
      <path
         id="path5351"
         d="m -15.132366,520.33625 0,100.23124"
         style="fill:none;stroke:#0000ff;stroke-width:12;stroke-linecap:round;stroke-linejoin:miter;stroke-miterlimit:4;stroke-opacity:1;stroke-dasharray:none;display:inline" />
    </g>
    <g
       transform="translate(27.857143,4.2857143)"
       id="g3948">
      <path
         style="fill:none;stroke:#ff0000;stroke-width:6;stroke-linecap:butt;stroke-linejoin:miter;stroke-miterlimit:4;stroke-opacity:1;stroke-dasharray:none"
         d="M -96.506947,294.33873 C -60.304356,257.68805 -29.11783,228.93327 -24.111159,205.91894 1.791675,86.850563 -411.79297,138.96407 -496.42093,226.68373"
         id="path3831" />
      <path
         id="path3833"
         d="m -127.14868,294.72999 c 31.346408,-29.51963 59.450436,-55.13925 65.896331,-73.94041 33.348948,-97.27092 -294.346321,-60.75303 -367.862981,9.9293"
         style="fill:none;stroke:#ff0000;stroke-width:6;stroke-linecap:butt;stroke-linejoin:miter;stroke-miterlimit:4;stroke-opacity:1;stroke-dasharray:none" />
      <path
         id="path3845"
         d="m -96.826467,294.66266 c -36.116053,36.66535 -62.466073,66.24064 -97.788813,84.11194 -182.74804,92.46012 -389.68608,-64.92298 -301.80565,-152.09087"
         style="fill:none;stroke:#ff0000;stroke-width:6;stroke-linecap:butt;stroke-linejoin:miter;stroke-miterlimit:4;stroke-opacity:1;stroke-dasharray:none" />
      <path
         style="fill:none;stroke:#ff0000;stroke-width:6;stroke-linecap:butt;stroke-linejoin:miter;stroke-miterlimit:4;stroke-opacity:1;stroke-dasharray:none"
         d="m -127.14868,294.72999 c -31.28366,29.53293 -57.86533,55.47526 -86.34587,69.6055 -147.34885,73.10514 -291.50145,-63.4354 -215.62077,-133.61661"
         id="path3847" />
      <path
         style="fill:none;stroke:#ff0000;stroke-width:6;stroke-linecap:butt;stroke-linejoin:miter;stroke-miterlimit:4;stroke-opacity:1;stroke-dasharray:none"
         d="m -156.01184,293.97064 c 27.38449,-23.22603 50.46258,-41.35213 57.512604,-56.54896 36.474463,-78.62335 -206.429554,-57.34529 -270.816044,-1.68648"
         id="path3835" />
      <path
         id="path3849"
         d="m -156.01183,293.97063 c -27.33783,23.23877 -47.7967,42.07996 -71.26327,52.7948 -121.40821,55.43501 -208.18793,-55.85226 -142.04018,-111.03023"
         style="fill:none;stroke:#ff0000;stroke-width:6;stroke-linecap:butt;stroke-linejoin:miter;stroke-miterlimit:4;stroke-opacity:1;stroke-dasharray:none" />
      <path
         id="path3837"
         d="m -188.29058,287.0027 c 22.60724,-18.05462 41.41988,-32.16428 48.76488,-43.85351 38.00055,-60.47617 -130.55037,-41.01534 -183.87826,2.23659"
         style="fill:none;stroke:#ff0000;stroke-width:6;stroke-linecap:butt;stroke-linejoin:miter;stroke-miterlimit:4;stroke-opacity:1;stroke-dasharray:none" />
      <path
         style="fill:none;stroke:#ff0000;stroke-width:6;stroke-linecap:butt;stroke-linejoin:miter;stroke-miterlimit:4;stroke-opacity:1;stroke-dasharray:none"
         d="m -188.29058,287.0027 c -22.5774,18.0638 -39.71351,32.68987 -57.5663,41.14254 -92.36437,43.73131 -132.00228,-39.85476 -77.54707,-82.75946"
         id="path3851" />
      <path
         style="fill:none;stroke:#ff0000;stroke-width:6;stroke-linecap:butt;stroke-linejoin:miter;stroke-miterlimit:4;stroke-opacity:1;stroke-dasharray:none"
         d="m -218.8644,279.46878 c 16.74124,-11.74321 30.49416,-20.92017 37.07142,-28.52426 34.02849,-39.34102 -65.72081,-25.72456 -105.34157,2.40759"
         id="path3839" />
      <path
         id="path3853"
         d="m -218.86439,279.46877 c -16.72602,11.74903 -29.59956,21.26241 -41.68578,26.75905 -62.52992,28.43782 -66.79619,-24.96969 -26.58438,-52.87572"
         style="fill:none;stroke:#ff0000;stroke-width:6;stroke-linecap:butt;stroke-linejoin:miter;stroke-miterlimit:4;stroke-opacity:1;stroke-dasharray:none" />
      <path
         style="fill:#ff0000;fill-opacity:1;stroke:#000000;stroke-width:0;stroke-linecap:butt;stroke-linejoin:miter;stroke-miterlimit:4;stroke-opacity:1;stroke-dasharray:none"
         d="m -63.603252,259.58841 -47.978148,32.74349 19.333987,-1.89038 6.761296,11.08288 z"
         id="path6632" />
      <path
         style="fill:#ff0000;fill-opacity:1;stroke:#000000;stroke-width:0;stroke-linecap:butt;stroke-linejoin:miter;stroke-miterlimit:4;stroke-opacity:1;stroke-dasharray:none"
         d="m -86.99599,256.70374 -50.07186,29.44229 19.41735,-0.58568 6.00055,11.51255 z"
         id="path6634" />
      <path
         style="fill:#ff0000;fill-opacity:1;stroke:#000000;stroke-width:0;stroke-linecap:butt;stroke-linejoin:miter;stroke-miterlimit:4;stroke-opacity:1;stroke-dasharray:none"
         d="m -110.90362,254.32535 -51.34299,27.16498 19.42407,0.28652 5.47772,11.77031 z"
         id="path6636" />
      <path
         id="path6638"
         d="m -142.72343,249.27459 -51.34299,27.16498 19.42407,0.28652 5.47772,11.77031 z"
         style="fill:#ff0000;fill-opacity:1;stroke:#000000;stroke-width:0;stroke-linecap:butt;stroke-linejoin:miter;stroke-miterlimit:4;stroke-opacity:1;stroke-dasharray:none" />
      <path
         style="fill:#ff0000;fill-opacity:1;stroke:#000000;stroke-width:0;stroke-linecap:butt;stroke-linejoin:miter;stroke-miterlimit:4;stroke-opacity:1;stroke-dasharray:none"
         d="m -175.87983,244.81388 -50.88867,28.00682 19.42616,-0.0334 5.67081,11.67851 z"
         id="path6640" />
      <path
         id="path6664"
         d="m -312.93622,276.30359 51.68762,-26.50334 -19.41879,-0.53596 -5.3261,-11.83969 z"
         style="fill:#ff0000;fill-opacity:1;stroke:#000000;stroke-width:0;stroke-linecap:butt;stroke-linejoin:miter;stroke-miterlimit:4;stroke-opacity:1;stroke-dasharray:none" />
      <path
         style="fill:#ff0000;fill-opacity:1;stroke:#000000;stroke-width:0;stroke-linecap:butt;stroke-linejoin:miter;stroke-miterlimit:4;stroke-opacity:1;stroke-dasharray:none"
         d="m -348.6589,271.05288 49.56411,-30.28922 -19.40459,0.91569 -6.19538,-11.4089 z"
         id="path6666" />
      <path
         id="path6668"
         d="m -393.23211,260.0156 50.61543,-28.49764 -19.42492,0.22128 -5.78348,-11.62313 z"
         style="fill:#ff0000;fill-opacity:1;stroke:#000000;stroke-width:0;stroke-linecap:butt;stroke-linejoin:miter;stroke-miterlimit:4;stroke-opacity:1;stroke-dasharray:none" />
      <path
         style="fill:#ff0000;fill-opacity:1;stroke:#000000;stroke-width:0;stroke-linecap:butt;stroke-linejoin:miter;stroke-miterlimit:4;stroke-opacity:1;stroke-dasharray:none"
         d="m -446.54177,246.24391 52.34949,-25.17079 -19.39869,-1.03313 -5.0211,-11.97223 z"
         id="path6670" />
      <path
         id="path6672"
         d="m -507.656,236.14238 52.34949,-25.17079 -19.39869,-1.03313 -5.0211,-11.97223 z"
         style="fill:#ff0000;fill-opacity:1;stroke:#000000;stroke-width:0;stroke-linecap:butt;stroke-linejoin:miter;stroke-miterlimit:4;stroke-opacity:1;stroke-dasharray:none" />
    </g>
    <g
       transform="translate(-27.142857,-5)"
       id="g3970">
      <path
         id="path2991"
         d="M -12.673878,308.56073 C 23.442172,271.89537 49.79219,242.32009 85.114938,224.44879 267.86297,131.98867 466.21472,285.33115 386.92058,376.53966"
         style="fill:none;stroke:#ff0000;stroke-width:6;stroke-linecap:butt;stroke-linejoin:miter;stroke-miterlimit:4;stroke-opacity:1;stroke-dasharray:none" />
      <path
         style="fill:none;stroke:#ff0000;stroke-width:6;stroke-linecap:butt;stroke-linejoin:miter;stroke-miterlimit:4;stroke-opacity:1;stroke-dasharray:none"
         d="m 17.040576,313.79076 c 30.346747,-30.80263 56.105975,-57.82329 84.129604,-73.11761 144.9849,-79.12776 288.2337,52.39788 219.63125,124.64961"
         id="path2997" />
      <path
         id="path2999"
         d="m 45.275304,318.58068 c 25.492609,-25.87226 44.461805,-46.67886 67.036976,-59.68879 116.7964,-67.30906 199.98197,28.86579 149.83689,96.48072"
         style="fill:none;stroke:#ff0000;stroke-width:6;stroke-linecap:butt;stroke-linejoin:miter;stroke-miterlimit:4;stroke-opacity:1;stroke-dasharray:none" />
      <path
         style="fill:none;stroke:#ff0000;stroke-width:6;stroke-linecap:butt;stroke-linejoin:miter;stroke-miterlimit:4;stroke-opacity:1;stroke-dasharray:none"
         d="m 77.753251,324.09046 c 20.627521,-20.9301 36.192429,-37.7256 53.084619,-48.48331 87.39451,-55.65681 128.03094,9.00263 85.28356,71.957"
         id="path3001" />
      <path
         id="path3003"
         d="m 108.63087,329.32874 c 14.70201,-14.91417 25.94685,-26.85653 37.02148,-34.68573 57.29643,-40.50564 69.54478,11.23867 34.1477,46.75934"
         style="fill:none;stroke:#ff0000;stroke-width:6;stroke-linecap:butt;stroke-linejoin:miter;stroke-miterlimit:4;stroke-opacity:1;stroke-dasharray:none" />
      <path
         style="fill:none;stroke:#ff0000;stroke-width:6;stroke-linecap:butt;stroke-linejoin:miter;stroke-miterlimit:4;stroke-opacity:1;stroke-dasharray:none;marker-start:none;marker-end:none"
         d="m -12.993399,308.88466 c -36.202591,36.65068 -67.798566,65.29239 -72.395788,88.41979 -24.662303,124.06946 394.919947,96.13476 472.309767,-20.76479"
         id="path3799" />
      <path
         id="path3801"
         d="m 17.04058,313.79076 c -30.409865,30.79192 -57.564448,57.60899 -63.558558,76.60742 -32.325391,102.45586 285.282408,69.24958 367.319418,-25.07541"
         style="fill:none;stroke:#ff0000;stroke-width:6;stroke-linecap:butt;stroke-linejoin:miter;stroke-miterlimit:4;stroke-opacity:1;stroke-dasharray:none" />
      <path
         style="fill:none;stroke:#ff0000;stroke-width:6;stroke-linecap:butt;stroke-linejoin:miter;stroke-miterlimit:4;stroke-opacity:1;stroke-dasharray:none"
         d="M 45.275312,318.58068 C 19.735267,344.4449 -2.6498226,364.45621 -7.7808266,380.64128 -34.771452,465.77962 220.06187,433.70968 262.14917,355.37261"
         id="path3803" />
      <path
         id="path3805"
         d="M 77.753251,324.09046 C 57.095161,345.01537 39.248118,361.17575 33.682085,374.10287 5.6512712,439.20448 175.01781,411.72454 216.12144,347.56416"
         style="fill:none;stroke:#ff0000;stroke-width:6;stroke-linecap:butt;stroke-linejoin:miter;stroke-miterlimit:4;stroke-opacity:1;stroke-dasharray:none" />
      <path
         style="fill:none;stroke:#ff0000;stroke-width:6;stroke-linecap:butt;stroke-linejoin:miter;stroke-miterlimit:4;stroke-opacity:1;stroke-dasharray:none"
         d="M 108.63088,329.32874 C 93.91299,344.24022 81.751433,356.02706 76.419679,364.83052 48.834975,410.37666 145.01912,377.02756 179.80005,341.40235"
         id="path3807" />
      <path
         id="path6644"
         d="m 20.811173,273.02093 -47.978151,32.74349 19.3339896,-1.89038 6.761296,11.08288 z"
         style="fill:#ff0000;fill-opacity:1;stroke:#000000;stroke-width:0;stroke-linecap:butt;stroke-linejoin:miter;stroke-miterlimit:4;stroke-opacity:1;stroke-dasharray:none" />
      <path
         style="fill:#ff0000;fill-opacity:1;stroke:#000000;stroke-width:0;stroke-linecap:butt;stroke-linejoin:miter;stroke-miterlimit:4;stroke-opacity:1;stroke-dasharray:none"
         d="M 50.811173,278.73522 2.8330216,311.4787 22.167012,309.58832 28.928308,320.6712 z"
         id="path6646" />
      <path
         id="path6648"
         d="m 78.628348,284.5327 -49.025512,31.15346 19.385559,-1.25572 6.394433,11.29852 z"
         style="fill:#ff0000;fill-opacity:1;stroke:#000000;stroke-width:0;stroke-linecap:butt;stroke-linejoin:miter;stroke-miterlimit:4;stroke-opacity:1;stroke-dasharray:none" />
      <path
         style="fill:#ff0000;fill-opacity:1;stroke:#000000;stroke-width:0;stroke-linecap:butt;stroke-linejoin:miter;stroke-miterlimit:4;stroke-opacity:1;stroke-dasharray:none"
         d="m 110.77121,290.24699 -49.025517,31.15346 19.385559,-1.25572 6.394433,11.29852 z"
         id="path6650" />
      <path
         id="path6652"
         d="m 141.4855,295.96128 -49.025521,31.15346 19.385561,-1.25572 6.39443,11.29852 z"
         style="fill:#ff0000;fill-opacity:1;stroke:#000000;stroke-width:0;stroke-linecap:butt;stroke-linejoin:miter;stroke-miterlimit:4;stroke-opacity:1;stroke-dasharray:none" />
      <path
         style="fill:#ff0000;fill-opacity:1;stroke:#000000;stroke-width:0;stroke-linecap:butt;stroke-linejoin:miter;stroke-miterlimit:4;stroke-opacity:1;stroke-dasharray:none"
         d="m 158.13006,363.24953 49.05021,-31.11455 -19.38654,1.24036 -6.38547,-11.30361 z"
         id="path6674" />
      <path
         id="path6678"
         d="m 196.95336,373.51008 44.34094,-37.52227 -19.03546,3.87655 -7.86948,-10.32556 z"
         style="fill:#ff0000;fill-opacity:1;stroke:#000000;stroke-width:0;stroke-linecap:butt;stroke-linejoin:miter;stroke-miterlimit:4;stroke-opacity:1;stroke-dasharray:none" />
      <path
         style="fill:#ff0000;fill-opacity:1;stroke:#000000;stroke-width:0;stroke-linecap:butt;stroke-linejoin:miter;stroke-miterlimit:4;stroke-opacity:1;stroke-dasharray:none"
         d="m 245.87851,379.42557 41.85646,-40.27501 -18.74933,5.08322 -8.51227,-9.80241 z"
         id="path6680" />
      <path
         id="path6682"
         d="m 299.95502,387.71285 48.03043,-32.66677 -19.33699,1.85951 -6.74356,-11.0937 z"
         style="fill:#ff0000;fill-opacity:1;stroke:#000000;stroke-width:0;stroke-linecap:butt;stroke-linejoin:miter;stroke-miterlimit:4;stroke-opacity:1;stroke-dasharray:none" />
      <path
         style="fill:#ff0000;fill-opacity:1;stroke:#000000;stroke-width:0;stroke-linecap:butt;stroke-linejoin:miter;stroke-miterlimit:4;stroke-opacity:1;stroke-dasharray:none"
         d="m 369.58714,400.84013 44.13486,-37.76445 -19.01396,3.98071 -7.92587,-10.28234 z"
         id="path6684" />
    </g>
    <path
       id="path4059"
       d="m -223.22379,167.79302 0,100.23124"
       style="fill:none;stroke:#0000ff;stroke-width:12;stroke-linecap:round;stroke-linejoin:miter;stroke-miterlimit:4;stroke-opacity:1;stroke-dasharray:none;display:inline" />
    <g
       style="display:inline"
       transform="translate(-2371.8778,25.992191)"
       id="g4061">
      <path
         style="color:#000000;fill:#000000;fill-opacity:1;stroke:#000000;stroke-width:1.05131602;stroke-linecap:butt;stroke-linejoin:miter;stroke-miterlimit:4;stroke-opacity:1;stroke-dasharray:none;stroke-dashoffset:0;marker:none;visibility:visible;display:inline;overflow:visible;enable-background:accumulate"
         id="path4063"
         d="m 927.32006,1422.9663 a 23.233507,13.131983 0 0 1 -23.23351,13.132 23.233507,13.131983 0 0 1 -23.23351,-13.132 23.233507,13.131983 0 0 1 23.23351,-13.132 23.233507,13.131983 0 0 1 23.23351,13.132 z"
         transform="matrix(0.74875167,0,0,-0.74875167,1471.7177,1200.0007)" />
      <path
         id="path4066"
         d="m 2131.8561,131.91815 17.3943,-33.0987 16.4997,33.5956"
         style="fill:#000000;fill-opacity:1;stroke:#000000;stroke-width:0.78717464;stroke-linecap:butt;stroke-linejoin:miter;stroke-miterlimit:4;stroke-opacity:1;stroke-dasharray:none;display:inline" />
    </g>
    <g
       transform="translate(-1153.5942,727.30982)"
       id="g4090">
      <g
         id="g4092"
         transform="matrix(1,0,0,-1,-821.18481,-376.01785)"
         style="display:inline">
        <path
           transform="matrix(0.74875167,0,0,-0.74875167,1471.7177,1200.0007)"
           d="m 927.32006,1422.9663 a 23.233507,13.131983 0 0 1 -23.23351,13.132 23.233507,13.131983 0 0 1 -23.23351,-13.132 23.233507,13.131983 0 0 1 23.23351,-13.132 23.233507,13.131983 0 0 1 23.23351,13.132 z"
           id="path4094"
           style="color:#000000;fill:#000000;fill-opacity:1;stroke:#000000;stroke-width:1.05131602;stroke-linecap:butt;stroke-linejoin:miter;stroke-miterlimit:4;stroke-opacity:1;stroke-dasharray:none;stroke-dashoffset:0;marker:none;visibility:visible;display:inline;overflow:visible;enable-background:accumulate" />
        <path
           style="fill:#000000;fill-opacity:1;stroke:#000000;stroke-width:0.78717464;stroke-linecap:butt;stroke-linejoin:miter;stroke-miterlimit:4;stroke-opacity:1;stroke-dasharray:none;display:inline"
           d="m 2131.8561,131.91815 17.3943,-33.0987 16.4997,33.5956"
           id="path4096" />
      </g>
      <path
         style="fill:none;stroke:#29cc32;stroke-width:12;stroke-linecap:round;stroke-linejoin:miter;stroke-miterlimit:4;stroke-opacity:1;stroke-dasharray:none;display:inline"
         d="m 1327.4692,-814.03579 0,300.88499"
         id="path4098" />
    </g>
    <g
       id="g4110"
       transform="translate(-1298.1943,881.83804)">
      <g
         style="display:inline"
         transform="matrix(1,0,0,-1,-821.18481,-376.01785)"
         id="g4112">
        <path
           style="color:#000000;fill:#000000;fill-opacity:1;stroke:#000000;stroke-width:1.05131602;stroke-linecap:butt;stroke-linejoin:miter;stroke-miterlimit:4;stroke-opacity:1;stroke-dasharray:none;stroke-dashoffset:0;marker:none;visibility:visible;display:inline;overflow:visible;enable-background:accumulate"
           id="path4114"
           d="m 927.32006,1422.9663 a 23.233507,13.131983 0 0 1 -23.23351,13.132 23.233507,13.131983 0 0 1 -23.23351,-13.132 23.233507,13.131983 0 0 1 23.23351,-13.132 23.233507,13.131983 0 0 1 23.23351,13.132 z"
           transform="matrix(0.74875167,0,0,-0.74875167,1471.7177,1200.0007)" />
        <path
           id="path4116"
           d="m 2131.8561,131.91815 17.3943,-33.0987 16.4997,33.5956"
           style="fill:#000000;fill-opacity:1;stroke:#000000;stroke-width:0.78717464;stroke-linecap:butt;stroke-linejoin:miter;stroke-miterlimit:4;stroke-opacity:1;stroke-dasharray:none;display:inline" />
      </g>
      <path
         id="path4118"
         d="m 1327.4692,-814.03579 0,300.88499"
         style="fill:none;stroke:#29cc32;stroke-width:12;stroke-linecap:round;stroke-linejoin:miter;stroke-miterlimit:4;stroke-opacity:1;stroke-dasharray:none;display:inline" />
    </g>
    <g
       transform="translate(-1626.6039,808.7797)"
       id="g4120">
      <g
         id="g4122"
         transform="matrix(1,0,0,-1,-821.18481,-376.01785)"
         style="display:inline">
        <path
           transform="matrix(0.74875167,0,0,-0.74875167,1471.7177,1200.0007)"
           d="m 927.32006,1422.9663 a 23.233507,13.131983 0 0 1 -23.23351,13.132 23.233507,13.131983 0 0 1 -23.23351,-13.132 23.233507,13.131983 0 0 1 23.23351,-13.132 23.233507,13.131983 0 0 1 23.23351,13.132 z"
           id="path4124"
           style="color:#000000;fill:#000000;fill-opacity:1;stroke:#000000;stroke-width:1.05131602;stroke-linecap:butt;stroke-linejoin:miter;stroke-miterlimit:4;stroke-opacity:1;stroke-dasharray:none;stroke-dashoffset:0;marker:none;visibility:visible;display:inline;overflow:visible;enable-background:accumulate" />
        <path
           style="fill:#000000;fill-opacity:1;stroke:#000000;stroke-width:0.78717464;stroke-linecap:butt;stroke-linejoin:miter;stroke-miterlimit:4;stroke-opacity:1;stroke-dasharray:none;display:inline"
           d="m 2131.8561,131.91815 17.3943,-33.0987 16.4997,33.5956"
           id="path4126" />
      </g>
      <path
         style="fill:none;stroke:#29cc32;stroke-width:12;stroke-linecap:round;stroke-linejoin:miter;stroke-miterlimit:4;stroke-opacity:1;stroke-dasharray:none;display:inline"
         d="m 1327.4692,-814.03579 0,300.88499"
         id="path4128" />
    </g>
    <g
       id="g4130"
       transform="translate(-1462.9592,681.50048)">
      <g
         style="display:inline"
         transform="matrix(1,0,0,-1,-821.18481,-376.01785)"
         id="g4132">
        <path
           style="color:#000000;fill:#000000;fill-opacity:1;stroke:#000000;stroke-width:1.05131602;stroke-linecap:butt;stroke-linejoin:miter;stroke-miterlimit:4;stroke-opacity:1;stroke-dasharray:none;stroke-dashoffset:0;marker:none;visibility:visible;display:inline;overflow:visible;enable-background:accumulate"
           id="path4134"
           d="m 927.32006,1422.9663 a 23.233507,13.131983 0 0 1 -23.23351,13.132 23.233507,13.131983 0 0 1 -23.23351,-13.132 23.233507,13.131983 0 0 1 23.23351,-13.132 23.233507,13.131983 0 0 1 23.23351,13.132 z"
           transform="matrix(0.74875167,0,0,-0.74875167,1471.7177,1200.0007)" />
        <path
           id="path4136"
           d="m 2131.8561,131.91815 17.3943,-33.0987 16.4997,33.5956"
           style="fill:#000000;fill-opacity:1;stroke:#000000;stroke-width:0.78717464;stroke-linecap:butt;stroke-linejoin:miter;stroke-miterlimit:4;stroke-opacity:1;stroke-dasharray:none;display:inline" />
      </g>
      <path
         id="path4138"
         d="m 1327.4692,-814.03579 0,300.88499"
         style="fill:none;stroke:#29cc32;stroke-width:12;stroke-linecap:round;stroke-linejoin:miter;stroke-miterlimit:4;stroke-opacity:1;stroke-dasharray:none;display:inline" />
    </g>
    <g
       id="g4140"
       transform="translate(-1264.711,711.14738)">
      <g
         style="display:inline"
         transform="matrix(1,0,0,-1,-821.18481,-376.01785)"
         id="g4142">
        <path
           style="color:#000000;fill:#000000;fill-opacity:1;stroke:#000000;stroke-width:1.05131602;stroke-linecap:butt;stroke-linejoin:miter;stroke-miterlimit:4;stroke-opacity:1;stroke-dasharray:none;stroke-dashoffset:0;marker:none;visibility:visible;display:inline;overflow:visible;enable-background:accumulate"
           id="path4144"
           d="m 927.32006,1422.9663 a 23.233507,13.131983 0 0 1 -23.23351,13.132 23.233507,13.131983 0 0 1 -23.23351,-13.132 23.233507,13.131983 0 0 1 23.23351,-13.132 23.233507,13.131983 0 0 1 23.23351,13.132 z"
           transform="matrix(0.74875167,0,0,-0.74875167,1471.7177,1200.0007)" />
        <path
           id="path4146"
           d="m 2131.8561,131.91815 17.3943,-33.0987 16.4997,33.5956"
           style="fill:#000000;fill-opacity:1;stroke:#000000;stroke-width:0.78717464;stroke-linecap:butt;stroke-linejoin:miter;stroke-miterlimit:4;stroke-opacity:1;stroke-dasharray:none;display:inline" />
      </g>
      <path
         id="path4148"
         d="m 1327.4692,-814.03579 0,300.88499"
         style="fill:none;stroke:#29cc32;stroke-width:12;stroke-linecap:round;stroke-linejoin:miter;stroke-miterlimit:4;stroke-opacity:1;stroke-dasharray:none;display:inline" />
    </g>
    <g
       transform="translate(-1365.7263,694.98494)"
       id="g4150">
      <g
         id="g4152"
         transform="matrix(1,0,0,-1,-821.18481,-376.01785)"
         style="display:inline">
        <path
           transform="matrix(0.74875167,0,0,-0.74875167,1471.7177,1200.0007)"
           d="m 927.32006,1422.9663 a 23.233507,13.131983 0 0 1 -23.23351,13.132 23.233507,13.131983 0 0 1 -23.23351,-13.132 23.233507,13.131983 0 0 1 23.23351,-13.132 23.233507,13.131983 0 0 1 23.23351,13.132 z"
           id="path4154"
           style="color:#000000;fill:#000000;fill-opacity:1;stroke:#000000;stroke-width:1.05131602;stroke-linecap:butt;stroke-linejoin:miter;stroke-miterlimit:4;stroke-opacity:1;stroke-dasharray:none;stroke-dashoffset:0;marker:none;visibility:visible;display:inline;overflow:visible;enable-background:accumulate" />
        <path
           style="fill:#000000;fill-opacity:1;stroke:#000000;stroke-width:0.78717464;stroke-linecap:butt;stroke-linejoin:miter;stroke-miterlimit:4;stroke-opacity:1;stroke-dasharray:none;display:inline"
           d="m 2131.8561,131.91815 17.3943,-33.0987 16.4997,33.5956"
           id="path4156" />
      </g>
      <path
         style="fill:none;stroke:#29cc32;stroke-width:12;stroke-linecap:round;stroke-linejoin:miter;stroke-miterlimit:4;stroke-opacity:1;stroke-dasharray:none;display:inline"
         d="m 1327.4692,-814.03579 0,300.88499"
         id="path4158" />
    </g>
    <g
       id="g4160"
       transform="translate(-1513.2086,836.4063)">
      <g
         style="display:inline"
         transform="matrix(1,0,0,-1,-821.18481,-376.01785)"
         id="g4162">
        <path
           style="color:#000000;fill:#000000;fill-opacity:1;stroke:#000000;stroke-width:1.05131602;stroke-linecap:butt;stroke-linejoin:miter;stroke-miterlimit:4;stroke-opacity:1;stroke-dasharray:none;stroke-dashoffset:0;marker:none;visibility:visible;display:inline;overflow:visible;enable-background:accumulate"
           id="path4164"
           d="m 927.32006,1422.9663 a 23.233507,13.131983 0 0 1 -23.23351,13.132 23.233507,13.131983 0 0 1 -23.23351,-13.132 23.233507,13.131983 0 0 1 23.23351,-13.132 23.233507,13.131983 0 0 1 23.23351,13.132 z"
           transform="matrix(0.74875167,0,0,-0.74875167,1471.7177,1200.0007)" />
        <path
           id="path4166"
           d="m 2131.8561,131.91815 17.3943,-33.0987 16.4997,33.5956"
           style="fill:#000000;fill-opacity:1;stroke:#000000;stroke-width:0.78717464;stroke-linecap:butt;stroke-linejoin:miter;stroke-miterlimit:4;stroke-opacity:1;stroke-dasharray:none;display:inline" />
      </g>
      <path
         id="path4168"
         d="m 1327.4692,-814.03579 0,300.88499"
         style="fill:none;stroke:#29cc32;stroke-width:12;stroke-linecap:round;stroke-linejoin:miter;stroke-miterlimit:4;stroke-opacity:1;stroke-dasharray:none;display:inline" />
    </g>
    <g
       transform="translate(-1400.0715,858.62966)"
       id="g4170">
      <g
         id="g4172"
         transform="matrix(1,0,0,-1,-821.18481,-376.01785)"
         style="display:inline">
        <path
           transform="matrix(0.74875167,0,0,-0.74875167,1471.7177,1200.0007)"
           d="m 927.32006,1422.9663 a 23.233507,13.131983 0 0 1 -23.23351,13.132 23.233507,13.131983 0 0 1 -23.23351,-13.132 23.233507,13.131983 0 0 1 23.23351,-13.132 23.233507,13.131983 0 0 1 23.23351,13.132 z"
           id="path4174"
           style="color:#000000;fill:#000000;fill-opacity:1;stroke:#000000;stroke-width:1.05131602;stroke-linecap:butt;stroke-linejoin:miter;stroke-miterlimit:4;stroke-opacity:1;stroke-dasharray:none;stroke-dashoffset:0;marker:none;visibility:visible;display:inline;overflow:visible;enable-background:accumulate" />
        <path
           style="fill:#000000;fill-opacity:1;stroke:#000000;stroke-width:0.78717464;stroke-linecap:butt;stroke-linejoin:miter;stroke-miterlimit:4;stroke-opacity:1;stroke-dasharray:none;display:inline"
           d="m 2131.8561,131.91815 17.3943,-33.0987 16.4997,33.5956"
           id="path4176" />
      </g>
      <path
         style="fill:none;stroke:#29cc32;stroke-width:12;stroke-linecap:round;stroke-linejoin:miter;stroke-miterlimit:4;stroke-opacity:1;stroke-dasharray:none;display:inline"
         d="m 1327.4692,-814.03579 0,300.88499"
         id="path4178" />
    </g>
  </g>
  <g
     id="layer3"
     transform="translate(-115.62054,161.30545)"
     style="display:inline">
    <g
       transform="translate(-2.4e-6,-252.53813)"
       id="g3992">
      <g
         id="g6867"
         transform="translate(-8.5714286,257.14286)">
        <path
           style="fill:#777777;fill-opacity:1;stroke:#000000;stroke-width:4;stroke-linecap:butt;stroke-linejoin:miter;stroke-miterlimit:4;stroke-opacity:1;stroke-dasharray:none"
           d="m 524.56059,105.31075 c 41.79457,-15.77567 77.8404,-12.718699 98.70353,-48.471149 20.86312,-35.75245 62.01954,-55.5583875 62.01954,-55.5583875 0,0 34.91528,19.9373365 76.37136,6.0609165 41.45608,-13.87641 57.54784,12.63614 121.55927,5.05076 64.01143,-7.58538 31.36604,38.237089 127.06051,16.364059 L 957.62461,200.68175 546.49253,192.60053 z"
           id="path4107" />
        <g
           id="g4057"
           transform="translate(821.29837,-82.23897)"
           style="fill:#aab4bb;fill-opacity:1;stroke-width:4;stroke-miterlimit:4;stroke-dasharray:none">
          <path
             transform="translate(-821.18477,-177.03131)"
             id="path4051"
             d="m 524.44699,364.58103 0,152.80142 334.28571,68.61625 151.4285,-153.55615 0,-143.70104 c -27.44902,29.99841 -19.35586,35.77401 -36.41596,68.33648 -17.0601,32.56247 -39.54847,1.90636 -115.01254,68.88993 0,0 -62.54874,-25.86271 -91.90057,-8.06389 -29.35183,17.79882 -113.04574,-61.3937 -158.45688,-45.51269 -45.41114,15.88101 -40.58597,10.30102 -83.92826,-7.81031 z"
             style="fill:#aab4bb;fill-opacity:1;stroke:#000000;stroke-width:4;stroke-linecap:butt;stroke-linejoin:miter;stroke-miterlimit:4;stroke-opacity:1;stroke-dasharray:none" />
          <path
             transform="translate(-821.18477,-177.03131)"
             id="path4055"
             d="m 858.7327,424.51028 1.28348,162.71327"
             style="fill:#aab4bb;fill-opacity:1;stroke:#000000;stroke-width:4;stroke-linecap:butt;stroke-linejoin:miter;stroke-miterlimit:4;stroke-opacity:1;stroke-dasharray:none" />
        </g>
      </g>
    </g>
  </g>
  <text
     sodipodi:linespacing="125%"
     xml:space="preserve"
     style="font-style:normal;font-variant:normal;font-weight:normal;font-stretch:normal;font-size:108px;line-height:125%;font-family:Arial;-inkscape-font-specification:Arial;text-align:start;letter-spacing:0px;word-spacing:0px;writing-mode:lr-tb;text-anchor:start;fill:#000000;fill-opacity:1;stroke:none"
     x="528.40997"
     y="316.88223"
     id="text6961"
     transform="matrix(1,0.187636,0,1,0,0)"><tspan
       id="tspan6963"
       x="528.40997"
       y="316.88223">N</tspan></text>
  <flowRoot
     xml:space="preserve"
     id="flowRoot3934"
     style="font-style:normal;font-variant:normal;font-weight:normal;font-stretch:normal;font-size:108px;line-height:125%;font-family:Arial;-inkscape-font-specification:Arial;text-align:start;letter-spacing:0px;word-spacing:0px;writing-mode:lr-tb;text-anchor:start;fill:#000000;fill-opacity:1;stroke:none"
     transform="translate(-136.77424,64.37346)"><flowRegion
       id="flowRegion3936"><rect
         id="rect3938"
         width="464.67017"
         height="925.29974"
         x="1919.2898"
         y="-312.6748" /></flowRegion><flowPara
       id="flowPara3940" /></flowRoot>  <text
     sodipodi:linespacing="125%"
     xml:space="preserve"
     style="font-style:normal;font-variant:normal;font-weight:normal;font-stretch:normal;font-size:90px;line-height:125%;font-family:Arial;-inkscape-font-specification:'Arial, Normal';text-align:start;letter-spacing:0px;word-spacing:0px;writing-mode:lr-tb;text-anchor:start;fill:#29cc32;fill-opacity:1;stroke:none"
     x="327.10522"
     y="470.13208"
     id="text4180"><tspan
       id="tspan4182"
       x="327.10522"
       y="470.13208"
       style="font-style:normal;font-variant:normal;font-weight:normal;font-stretch:normal;font-size:90px;line-height:125%;font-family:Arial;-inkscape-font-specification:'Arial, Normal';text-align:start;writing-mode:lr-tb;text-anchor:start">B</tspan></text>
  <text
     sodipodi:linespacing="125%"
     id="text5339"
     y="942.71942"
     x="528.40997"
     style="font-style:normal;font-variant:normal;font-weight:normal;font-stretch:normal;font-size:108px;line-height:125%;font-family:Arial;-inkscape-font-specification:Arial;text-align:start;letter-spacing:0px;word-spacing:0px;writing-mode:lr-tb;text-anchor:start;fill:#000000;fill-opacity:1;stroke:none"
     xml:space="preserve"
     transform="matrix(1,0.16249326,0,1,0,0)"><tspan
       y="942.71942"
       x="528.40997"
       id="tspan5341">S</tspan></text>
  <text
     sodipodi:linespacing="125%"
     id="text5359"
     y="496.17068"
     x="1218.6857"
     style="font-style:normal;font-variant:normal;font-weight:normal;font-stretch:normal;font-size:108px;line-height:125%;font-family:Arial;-inkscape-font-specification:Arial;text-align:start;letter-spacing:0px;word-spacing:0px;writing-mode:lr-tb;text-anchor:start;fill:#030000;fill-opacity:1;stroke:#000000;stroke-opacity:1"
     xml:space="preserve"><tspan
       y="496.17068"
       x="1218.6857"
       id="tspan5361">D</tspan></text>
</svg>
